0
SECTION
2
HEADER
9
$INSUNITS
70
4
9
$ACADVER
1
AC1014
9
$HANDSEED
5
FFFF
0
ENDSEC
0
SECTION
2
TABLES
0
TABLE
2
VPORT
5
8
100
AcDbSymbolTable
0
ENDTAB
0
TABLE
2
LTYPE
5
5
100
AcDbSymbolTable
0
LTYPE
5
14
100
AcDbSymbolTableRecord
100
AcDbLinetypeTableRecord
2
BYBLOCK
70
0
0
LTYPE
5
15
100
AcDbSymbolTableRecord
100
AcDbLinetypeTableRecord
2
BYLAYER
70
0
0
LTYPE
5
16
100
AcDbSymbolTableRecord
100
AcDbLinetypeTableRecord
2
DASHED
70
0
3
Dashed __ __ __ __ __ __ __ __ __ __ __ __ __ _
72
65
73
2
40
0.75
49
0.5
74
0
49
-0.25
74
0
0
ENDTAB
0
TABLE
2
LAYER
5
2
100
AcDbSymbolTable
70
3
0
LAYER
5
50
100
AcDbSymbolTableRecord
100
AcDbLayerTableRecord
2
1
70
0
62
7
6
DASHED
0
LAYER
5
51
100
AcDbSymbolTableRecord
100
AcDbLayerTableRecord
2
0
70
0
62
7
6
CONTINUOUS
0
ENDTAB
0
TABLE
2
STYLE
5
3
100
AcDbSymbolTable
70
1
0
STYLE
5
11
100
AcDbSymbolTableRecord
100
AcDbTextStyleTableRecord
2
STANDARD
70
0
0
ENDTAB
0
TABLE
2
VIEW
5
6
100
AcDbSymbolTable
70
0
0
ENDTAB
0
TABLE
2
UCS
5
7
100
AcDbSymbolTable
70
0
0
ENDTAB
0
TABLE
2
APPID
5
9
100
AcDbSymbolTable
70
2
0
APPID
5
12
100
AcDbSymbolTableRecord
100
AcDbRegAppTableRecord
2
ACAD
70
0
0
ENDTAB
0
TABLE
2
DIMSTYLE
5
A
100
AcDbSymbolTable
70
1
0
ENDTAB
0
TABLE
2
BLOCK_RECORD
5
1
100
AcDbSymbolTable
70
1
0
BLOCK_RECORD
5
1F
100
AcDbSymbolTableRecord
100
AcDbBlockTableRecord
2
*MODEL_SPACE
0
BLOCK_RECORD
5
1B
100
AcDbSymbolTableRecord
100
AcDbBlockTableRecord
2
*PAPER_SPACE
0
ENDTAB
0
ENDSEC
0
SECTION
2
BLOCKS
0
BLOCK
5
20
100
AcDbEntity
100
AcDbBlockBegin
2
*MODEL_SPACE
0
ENDBLK
5
21
100
AcDbEntity
100
AcDbBlockEnd
0
BLOCK
5
1C
100
AcDbEntity
100
AcDbBlockBegin
2
*PAPER_SPACE
0
ENDBLK
5
1D
100
AcDbEntity
100
AcDbBlockEnd
0
ENDSEC
0
SECTION
2
ENTITIES
0
LWPOLYLINE
5
100
100
AcDbEntity
8
0
100
AcDbPolyline
90
6
70
1
43
0.0
10
24.082413394787991
20
-51.76104456926366
10
24.998924650665941
20
-53.428398490197978
10
26.241913926354957
20
-55.694438775928205
42
-1.0005806930757228
10
23.523093740663512
20
-57.183738463440214
10
22.308266661430167
20
-54.962928293485859
10
21.275174455046326
20
-53.070288814874061
42
-1.0407149218075269
0
LWPOLYLINE
5
101
100
AcDbEntity
8
0
100
AcDbPolyline
90
6
70
1
43
0.0
10
363.60927639434396
20
-55.740353450462663
10
364.53972569658305
20
-53.960967649235478
10
365.81637053421815
20
-51.617813225901031
42
-0.95771755834253047
10
368.59745115815036
20
-52.980779228678969
10
367.49896569034712
20
-55.003243678475329
10
366.3548138917829
20
-57.179802145632415
42
-0.99891601922182005
0
LWPOLYLINE
5
102
100
AcDbEntity
8
0
100
AcDbPolyline
90
4
70
1
43
0.0
10
197.45965098559341
20
-21.641187892997262
10
194.86408913154884
20
-21.641187892997262
10
198.38304746488211
20
-16.553250715974972
10
201.0024224648821
20
-16.553250715974972
0
LWPOLYLINE
5
103
100
AcDbEntity
8
0
100
AcDbPolyline
90
4
70
1
43
0.0
10
190.20477727750421
20
-21.641187892997262
10
197.18977727750422
20
-11.552625715974951
10
199.7853391315488
20
-11.549979721152805
10
192.77123561083755
20
-21.641187892997262
0
LWPOLYLINE
5
104
100
AcDbEntity
8
0
100
AcDbPolyline
90
4
70
1
43
0.0
10
189.01944426714857
20
-16.590293028597056
10
192.51194426714861
20
-11.555272518241413
10
195.09956894417087
20
-11.549979721152805
10
191.62294491310399
20
-16.590293028597056
0
LWPOLYLINE
5
105
100
AcDbEntity
8
0
100
AcDbPolyline
90
4
70
1
43
0.0
10
117.95000537225611
20
-27.949804897896989
10
122.05000535569127
20
-27.949804897896982
42
-0.99999999999999989
10
122.05000535569127
20
-32.049804897896983
10
117.95000537225611
20
-32.049804897896983
42
-0.99999999999999989
0
LWPOLYLINE
5
106
100
AcDbEntity
8
0
100
AcDbPolyline
90
4
70
1
43
0.0
10
267.95000534732009
20
-27.949804897889905
10
272.0500053638039
20
-27.949804897896996
42
-0.99999999999999989
10
272.0500053638039
20
-32.049804897896969
10
267.95000538028779
20
-32.049804897904068
42
-0.99999999999999989
0
LWPOLYLINE
5
107
100
AcDbEntity
8
0
100
AcDbPolyline
90
22
70
1
43
0.0
10
-43.815667164661747
20
-62.795168280305028
10
20.556204327315086
20
-73.64041885821598
42
-0.062547691707975334
10
369.45829830983155
20
-73.643841330101935
10
433.90685397582945
20
-62.787818190698715
42
-0.020540257648635225
10
442.0545890297833
20
-61.757362691173583
42
0.82815319250775055
10
444.67393556786453
20
-36.347461700044043
42
0.34874995592392988
10
440.05566274185946
20
-38.19715323087172
42
-0.33359895921176513
10
426.27870020358716
20
-44.153846630685791
42
0.059039921873204441
10
239.31517181702972
20
-22.000000476836306
10
213.74264697543541
20
-22.000000476838693
42
-0.19891236737965465
10
211.6213266318758
20
-21.121320820398338
10
201.37868546791765
20
-10.878679656440138
42
0.19891236737965584
10
199.25736512435802
20
-9.9999999999998117
10
190.74264068711787
20
-9.9999999999998046
42
0.19891236737965676
10
188.62132034355824
20
-10.878679656440154
10
178.37867917960037
20
-21.121320820397983
42
-0.19891236737966111
10
176.25735883604068
20
-22.000000476838338
10
150.6824399333527
20
-22.000000476836448
42
0.059039161617720624
10
-36.278731221652933
20
-44.153280048994986
42
-0.33379623129786079
10
-50.060073076953699
20
-38.18883554398046
42
0.34812433675122489
10
-54.668468110105692
20
-36.333313126556234
42
0.82984186443480612
10
-52.072101559077034
20
-61.755270141179189
42
-0.020813172915419245
0
CIRCLE
5
108
100
AcDbEntity
8
0
100
AcDbCircle
10
-50.985660750605462
20
-48.800747904922218
30
7.1054273576010019e-14
40
5
210
6.4521479494213023e-30
220
5.9178061170838648e-16
230
1
0
CIRCLE
5
109
100
AcDbEntity
8
0
100
AcDbCircle
10
-42.436615135965354
20
-49.735521293803217
30
-3.2329694477084558e-12
40
1.549999999999998
210
6.4521479494213009e-30
220
5.9178061170838648e-16
230
1
0
CIRCLE
5
110
100
AcDbEntity
8
0
100
AcDbCircle
10
-56.069721059478397
20
-55.737051890872081
30
-3.2329694477084558e-12
40
1.549999999999998
210
6.4521479494213009e-30
220
5.9178061170838648e-16
230
1
0
CIRCLE
5
111
100
AcDbEntity
8
0
100
AcDbCircle
10
-54.450646056373131
20
-40.929670530091272
30
-3.2329694477084558e-12
40
1.549999999999998
210
6.4521479494213009e-30
220
5.9178061170838648e-16
230
1
0
CIRCLE
5
112
100
AcDbEntity
8
0
100
AcDbCircle
10
432.4097384012241
20
-49.777754304672555
30
3.3750779948604759e-12
40
1.5500000000000114
210
6.4521479494212869e-30
220
5.9178061170838657e-16
230
1
0
CIRCLE
5
113
100
AcDbEntity
8
0
100
AcDbCircle
10
444.38348201689519
20
-40.91719767446628
30
3.3750779948604759e-12
40
1.5500000000000114
210
6.4521479494212869e-30
220
5.9178061170838657e-16
230
1
0
CIRCLE
5
114
100
AcDbEntity
8
0
100
AcDbCircle
10
440.95443258686953
20
-48.803998039427071
30
1.1404210908949608e-11
40
5
210
6.4521479494212869e-30
220
5.9178061170838657e-16
230
1
0
CIRCLE
5
115
100
AcDbEntity
8
0
100
AcDbCircle
10
446.07007734248884
20
-55.717042139142464
30
3.3750779948604759e-12
40
1.5500000000000114
210
6.4521479494212869e-30
220
5.9178061170838657e-16
230
1
0
ENDSEC
0
SECTION
2
OBJECTS
0
DICTIONARY
5
C
100
AcDbDictionary
3
ACAD_GROUP
350
D
3
ACAD_MLINESTYLE
350
17
0
DICTIONARY
5
D
100
AcDbDictionary
0
DICTIONARY
5
1A
330
C
100
AcDbDictionary
0
DICTIONARY
5
17
100
AcDbDictionary
0
ENDSEC
0
EOF
