0
SECTION
2
HEADER
9
$INSUNITS
70
4
9
$ACADVER
1
AC1014
9
$HANDSEED
5
FFFF
0
ENDSEC
0
SECTION
2
TABLES
0
TABLE
2
VPORT
5
8
100
AcDbSymbolTable
0
ENDTAB
0
TABLE
2
LTYPE
5
5
100
AcDbSymbolTable
0
LTYPE
5
14
100
AcDbSymbolTableRecord
100
AcDbLinetypeTableRecord
2
BYBLOCK
70
0
0
LTYPE
5
15
100
AcDbSymbolTableRecord
100
AcDbLinetypeTableRecord
2
BYLAYER
70
0
0
LTYPE
5
16
100
AcDbSymbolTableRecord
100
AcDbLinetypeTableRecord
2
DASHED
70
0
3
Dashed __ __ __ __ __ __ __ __ __ __ __ __ __ _
72
65
73
2
40
0.75
49
0.5
74
0
49
-0.25
74
0
0
ENDTAB
0
TABLE
2
LAYER
5
2
100
AcDbSymbolTable
70
3
0
LAYER
5
50
100
AcDbSymbolTableRecord
100
AcDbLayerTableRecord
2
1
70
0
62
7
6
DASHED
0
LAYER
5
51
100
AcDbSymbolTableRecord
100
AcDbLayerTableRecord
2
0
70
0
62
7
6
CONTINUOUS
0
ENDTAB
0
TABLE
2
STYLE
5
3
100
AcDbSymbolTable
70
1
0
STYLE
5
11
100
AcDbSymbolTableRecord
100
AcDbTextStyleTableRecord
2
STANDARD
70
0
0
ENDTAB
0
TABLE
2
VIEW
5
6
100
AcDbSymbolTable
70
0
0
ENDTAB
0
TABLE
2
UCS
5
7
100
AcDbSymbolTable
70
0
0
ENDTAB
0
TABLE
2
APPID
5
9
100
AcDbSymbolTable
70
2
0
APPID
5
12
100
AcDbSymbolTableRecord
100
AcDbRegAppTableRecord
2
ACAD
70
0
0
ENDTAB
0
TABLE
2
DIMSTYLE
5
A
100
AcDbSymbolTable
70
1
0
ENDTAB
0
TABLE
2
BLOCK_RECORD
5
1
100
AcDbSymbolTable
70
1
0
BLOCK_RECORD
5
1F
100
AcDbSymbolTableRecord
100
AcDbBlockTableRecord
2
*MODEL_SPACE
0
BLOCK_RECORD
5
1B
100
AcDbSymbolTableRecord
100
AcDbBlockTableRecord
2
*PAPER_SPACE
0
ENDTAB
0
ENDSEC
0
SECTION
2
BLOCKS
0
BLOCK
5
20
100
AcDbEntity
100
AcDbBlockBegin
2
*MODEL_SPACE
0
ENDBLK
5
21
100
AcDbEntity
100
AcDbBlockEnd
0
BLOCK
5
1C
100
AcDbEntity
100
AcDbBlockBegin
2
*PAPER_SPACE
0
ENDBLK
5
1D
100
AcDbEntity
100
AcDbBlockEnd
0
ENDSEC
0
SECTION
2
ENTITIES
0
LWPOLYLINE
5
100
100
AcDbEntity
8
0
100
AcDbPolyline
90
4
70
1
43
0.0
10
418.18547673398996
20
-0.083475186726291728
10
415.29168576601052
20
-0.083475186726291728
10
419.17359951601054
20
5.5129501105339926
10
422.04974434452083
20
5.518833054497998
0
LWPOLYLINE
5
101
100
AcDbEntity
8
0
100
AcDbPolyline
90
4
70
1
43
0.0
10
428.61076603279145
20
-0.042302656246862025
10
424.67297553356207
20
-5.6975448285071471
10
421.78800853279142
20
-5.6975448285071462
10
425.69933072029141
20
-0.042302656246862053
0
LWPOLYLINE
5
102
100
AcDbEntity
8
0
100
AcDbPolyline
90
4
70
1
43
0.0
10
419.46180184452089
20
-5.6975448285071462
10
416.60918340702085
20
-5.6975448285071462
10
424.3730109070209
20
5.5158920312531396
10
427.25797790779143
20
5.518833054497998
0
LWPOLYLINE
5
103
100
AcDbEntity
8
0
100
AcDbPolyline
90
4
70
1
43
0.0
10
445.80226605877357
20
-17.602081528023476
10
442.97383893402787
20
-20.430508652769319
42
-0.99999999999999989
10
440.56967587799272
20
-18.026345596735965
10
443.39810302065166
20
-15.197918454076857
42
-0.9999999925494194
0
LWPOLYLINE
5
104
100
AcDbEntity
8
0
100
AcDbPolyline
90
4
70
1
43
0.0
10
414.80226605877442
20
-17.602081528023458
10
411.97383891611616
20
-20.4305086706818
42
-0.9999999925494194
10
409.56967587799369
20
-18.026345596735709
10
412.39810300274024
20
-15.197918471989286
42
-0.99999999999999989
0
LWPOLYLINE
5
105
100
AcDbEntity
8
0
100
AcDbPolyline
90
4
70
1
43
0.0
10
445.80226605877465
20
-48.602081528023362
10
442.97383890869747
20
-51.430508678100466
42
-0.99999998946328783
10
440.56967587799102
20
-49.026345596738452
10
443.3981030027382
20
-46.197918471991208
42
-0.99999999999999989
0
LWPOLYLINE
5
106
100
AcDbEntity
8
0
100
AcDbPolyline
90
4
70
1
43
0.0
10
414.80226605877482
20
-48.602081528024073
10
411.97383893402815
20
-51.430508652770861
42
-0.99999999999999989
10
409.56967587799426
20
-49.026345596736256
10
412.39810300273979
20
-46.197918471990498
42
-0.99999999999999989
0
LWPOLYLINE
5
107
100
AcDbEntity
8
0
100
AcDbPolyline
90
4
70
1
43
0.0
10
417.24350629651411
20
-25.374781744268926
42
0.0088502506808587362
10
419.74653915027153
20
-22.871748890511089
42
-1.0178585540418119
10
438.12843564025468
20
-41.253645380491683
42
0.0088502506808587362
10
435.62540278649698
20
-43.756678234249208
42
-1.0178585540417673
0
LWPOLYLINE
5
108
100
AcDbEntity
8
0
100
AcDbPolyline
90
12
70
1
43
0.0
10
442.1001845307589
20
8.0999999999926633
42
0.4142135623730806
10
440.10018453075901
20
10.099999999992706
10
403.60018453075867
20
10.099999999993523
42
0.41421356237308549
10
401.60018453075861
20
8.0999999999935817
10
401.60018453075674
20
-58.300000000006015
42
0.4142135623730937
10
403.60018453075668
20
-60.300000000006079
10
469.10018453075668
20
-60.300000000007977
42
0.41421356237309892
10
471.10018453075668
20
-58.300000000008041
10
471.10018453075782
20
-20.900000000006003
42
0.41421356237310347
10
469.1001845307577
20
-18.900000000005946
10
451.40018453075743
20
-18.900000000005946
10
442.1001845307585
20
-9.6000000000068244
0
CIRCLE
5
109
100
AcDbEntity
8
0
100
AcDbCircle
10
461.00000581145287
20
-53.900000000007736
30
0
40
2.1999999999999886
210
-5.0538063230581237e-17
220
1.8698705789548698e-18
230
1
0
CIRCLE
5
110
100
AcDbEntity
8
0
100
AcDbCircle
10
461.05018453075809
20
-24.900000000005576
30
0
40
2.1999999999999886
210
-5.0538063230581237e-17
220
1.8698705789548698e-18
230
1
0
CIRCLE
5
111
100
AcDbEntity
8
0
100
AcDbCircle
10
436.10000543892363
20
3.1397107136399427e-12
30
0
40
2.1999999999999886
210
-5.0538063230581237e-17
220
1.8698705789548698e-18
230
1
0
CIRCLE
5
112
100
AcDbEntity
8
0
100
AcDbCircle
10
408.00000502169104
20
3.1397107136399427e-12
30
-7.1054273576010019e-14
40
2.1999999999999886
210
-5.0538063230581237e-17
220
1.8698705789548698e-18
230
1
0
ENDSEC
0
SECTION
2
OBJECTS
0
DICTIONARY
5
C
100
AcDbDictionary
3
ACAD_GROUP
350
D
3
ACAD_MLINESTYLE
350
17
0
DICTIONARY
5
D
100
AcDbDictionary
0
DICTIONARY
5
1A
330
C
100
AcDbDictionary
0
DICTIONARY
5
17
100
AcDbDictionary
0
ENDSEC
0
EOF
