0
SECTION
2
HEADER
9
$INSUNITS
70
4
9
$ACADVER
1
AC1014
9
$HANDSEED
5
FFFF
0
ENDSEC
0
SECTION
2
TABLES
0
TABLE
2
VPORT
5
8
100
AcDbSymbolTable
0
ENDTAB
0
TABLE
2
LTYPE
5
5
100
AcDbSymbolTable
0
LTYPE
5
14
100
AcDbSymbolTableRecord
100
AcDbLinetypeTableRecord
2
BYBLOCK
70
0
0
LTYPE
5
15
100
AcDbSymbolTableRecord
100
AcDbLinetypeTableRecord
2
BYLAYER
70
0
0
LTYPE
5
16
100
AcDbSymbolTableRecord
100
AcDbLinetypeTableRecord
2
DASHED
70
0
3
Dashed __ __ __ __ __ __ __ __ __ __ __ __ __ _
72
65
73
2
40
0.75
49
0.5
74
0
49
-0.25
74
0
0
ENDTAB
0
TABLE
2
LAYER
5
2
100
AcDbSymbolTable
70
3
0
LAYER
5
50
100
AcDbSymbolTableRecord
100
AcDbLayerTableRecord
2
1
70
0
62
7
6
DASHED
0
LAYER
5
51
100
AcDbSymbolTableRecord
100
AcDbLayerTableRecord
2
0
70
0
62
7
6
CONTINUOUS
0
ENDTAB
0
TABLE
2
STYLE
5
3
100
AcDbSymbolTable
70
1
0
STYLE
5
11
100
AcDbSymbolTableRecord
100
AcDbTextStyleTableRecord
2
STANDARD
70
0
0
ENDTAB
0
TABLE
2
VIEW
5
6
100
AcDbSymbolTable
70
0
0
ENDTAB
0
TABLE
2
UCS
5
7
100
AcDbSymbolTable
70
0
0
ENDTAB
0
TABLE
2
APPID
5
9
100
AcDbSymbolTable
70
2
0
APPID
5
12
100
AcDbSymbolTableRecord
100
AcDbRegAppTableRecord
2
ACAD
70
0
0
ENDTAB
0
TABLE
2
DIMSTYLE
5
A
100
AcDbSymbolTable
70
1
0
ENDTAB
0
TABLE
2
BLOCK_RECORD
5
1
100
AcDbSymbolTable
70
1
0
BLOCK_RECORD
5
1F
100
AcDbSymbolTableRecord
100
AcDbBlockTableRecord
2
*MODEL_SPACE
0
BLOCK_RECORD
5
1B
100
AcDbSymbolTableRecord
100
AcDbBlockTableRecord
2
*PAPER_SPACE
0
ENDTAB
0
ENDSEC
0
SECTION
2
BLOCKS
0
BLOCK
5
20
100
AcDbEntity
100
AcDbBlockBegin
2
*MODEL_SPACE
0
ENDBLK
5
21
100
AcDbEntity
100
AcDbBlockEnd
0
BLOCK
5
1C
100
AcDbEntity
100
AcDbBlockBegin
2
*PAPER_SPACE
0
ENDBLK
5
1D
100
AcDbEntity
100
AcDbBlockEnd
0
ENDSEC
0
SECTION
2
ENTITIES
0
LWPOLYLINE
5
100
100
AcDbEntity
8
0
100
AcDbPolyline
90
12
70
1
43
0.0
10
-49.89981546924124
20
10.099999999991777
42
0.4142135623730957
10
-51.899815469241304
20
8.0999999999918462
10
-51.899815469241872
20
-9.6000000000067267
10
-61.199815469242225
20
-18.900000000006237
10
-78.899815469242043
20
-18.900000000005253
42
0.41421356237309698
10
-80.899815469242142
20
-20.900000000005193
10
-80.899815469243279
20
-58.300000000007195
42
0.41421356237309503
10
-78.899815469243393
20
-60.300000000007266
10
-13.399815469243421
20
-60.300000000009099
42
0.41421356237309764
10
-11.399815469243357
20
-58.300000000009156
10
-11.399815469241439
20
8.0999999999904375
42
0.41421356237309781
10
-13.399815469241396
20
10.099999999990493
0
LWPOLYLINE
5
101
100
AcDbEntity
8
0
100
AcDbPolyline
90
4
70
1
43
0.0
10
-22.197733941226154
20
-46.197918471992601
10
-19.369306816480027
20
-49.026345596738743
42
-0.99794428139531177
10
-21.768512339466675
20
-51.435445824142192
10
-24.596939464209761
20
-48.607018699399077
42
-1.0020599532903001
0
LWPOLYLINE
5
102
100
AcDbEntity
8
0
100
AcDbPolyline
90
4
70
1
43
0.0
10
-53.197668407816074
20
-46.197984008972838
10
-50.388647994428965
20
-49.007310723945956
42
-1.0080212117033227
10
-52.773488197970231
20
-51.430490327034946
10
-55.591690837217634
20
-48.612201760117991
42
-1.004263718410098
0
LWPOLYLINE
5
103
100
AcDbEntity
8
0
100
AcDbPolyline
90
4
70
1
43
0.0
10
-53.149038635219519
20
-15.248671501499221
10
-50.369752025524761
20
-18.025900552517488
42
-1.0001851654172955
10
-52.773469872511534
20
-20.430508652770367
10
-55.601896997257739
20
-17.602081528024179
42
-1.0209054257989627
0
LWPOLYLINE
5
104
100
AcDbEntity
8
0
100
AcDbPolyline
90
4
70
1
43
0.0
10
-22.197733941224413
20
-15.197918471991727
10
-19.369306791146219
20
-18.026345622069858
42
-0.99999998946328783
10
-21.773469872512443
20
-20.430508652772144
10
-24.601896997258592
20
-17.60208152802592
42
-0.99999999999999989
0
LWPOLYLINE
5
105
100
AcDbEntity
8
0
100
AcDbPolyline
90
4
70
1
43
0.0
10
-29.040912444635758
20
-5.6877843495051135
10
-31.924581664479348
20
-5.6877843495051117
10
-28.015018956145994
20
-0.035086145833338495
10
-25.104893331145988
20
-0.035086145833338467
0
LWPOLYLINE
5
106
100
AcDbEntity
8
0
100
AcDbPolyline
90
4
70
1
43
0.0
10
-35.52549289117156
20
-0.076240155156458433
10
-38.417982108827964
20
-0.076240155156457323
10
-34.537814608828015
20
5.5176676318486511
10
-31.662963592656226
20
5.5235479294141099
0
LWPOLYLINE
5
107
100
AcDbEntity
8
0
100
AcDbPolyline
90
4
70
1
43
0.0
10
-34.249741925989561
20
-5.6877843495051135
10
-37.1010771343229
20
-5.6877843495051117
10
-29.340742134322895
20
5.5206082291666654
10
-26.45707291447934
20
5.5235479294141099
0
LWPOLYLINE
5
108
100
AcDbEntity
8
0
100
AcDbPolyline
90
4
70
1
43
0.0
10
-29.546170088756128
20
-22.871748890513103
42
0.0088502506808603061
10
-27.043137234998312
20
-25.374781744270848
42
-1.0178585540417799
10
-45.425033724982946
20
-43.756678234249975
42
0.0088502506808603061
10
-47.92806657874074
20
-41.253645380492316
42
-1.0178585540417848
0
CIRCLE
5
109
100
AcDbEntity
8
0
100
AcDbCircle
10
-17.799635960174278
20
3.6774363099857656e-13
30
8.1712414612411521e-12
40
2.1999999999999886
210
-2.6414971083025543e-13
220
1.8698705865389015e-18
230
1
0
CIRCLE
5
110
100
AcDbEntity
8
0
100
AcDbCircle
10
-45.899636377406843
20
1.9816168780450728e-12
30
7.1054273576010019e-13
40
2.1999999999999886
210
-2.6414971083025543e-13
220
1.8698705865389015e-18
230
1
0
CIRCLE
5
111
100
AcDbEntity
8
0
100
AcDbCircle
10
-70.849815469242756
20
-24.900000000005306
30
-5.8975047068088315e-12
40
2.1999999999999886
210
-2.6414971083025543e-13
220
1.8698705865389015e-18
230
1
0
CIRCLE
5
112
100
AcDbEntity
8
0
100
AcDbCircle
10
-70.799636749939197
20
-53.900000000007466
30
-5.8975047068088315e-12
40
2.1999999999999886
210
-2.6414971083025543e-13
220
1.8698705865389015e-18
230
1
0
ENDSEC
0
SECTION
2
OBJECTS
0
DICTIONARY
5
C
100
AcDbDictionary
3
ACAD_GROUP
350
D
3
ACAD_MLINESTYLE
350
17
0
DICTIONARY
5
D
100
AcDbDictionary
0
DICTIONARY
5
1A
330
C
100
AcDbDictionary
0
DICTIONARY
5
17
100
AcDbDictionary
0
ENDSEC
0
EOF
