0
SECTION
2
HEADER
9
$INSUNITS
70
4
9
$ACADVER
1
AC1014
9
$HANDSEED
5
FFFF
0
ENDSEC
0
SECTION
2
TABLES
0
TABLE
2
VPORT
5
8
100
AcDbSymbolTable
0
ENDTAB
0
TABLE
2
LTYPE
5
5
100
AcDbSymbolTable
0
LTYPE
5
14
100
AcDbSymbolTableRecord
100
AcDbLinetypeTableRecord
2
BYBLOCK
70
0
0
LTYPE
5
15
100
AcDbSymbolTableRecord
100
AcDbLinetypeTableRecord
2
BYLAYER
70
0
0
LTYPE
5
16
100
AcDbSymbolTableRecord
100
AcDbLinetypeTableRecord
2
DASHED
70
0
3
Dashed __ __ __ __ __ __ __ __ __ __ __ __ __ _
72
65
73
2
40
0.75
49
0.5
74
0
49
-0.25
74
0
0
ENDTAB
0
TABLE
2
LAYER
5
2
100
AcDbSymbolTable
70
3
0
LAYER
5
50
100
AcDbSymbolTableRecord
100
AcDbLayerTableRecord
2
1
70
0
62
7
6
DASHED
0
LAYER
5
51
100
AcDbSymbolTableRecord
100
AcDbLayerTableRecord
2
0
70
0
62
7
6
CONTINUOUS
0
ENDTAB
0
TABLE
2
STYLE
5
3
100
AcDbSymbolTable
70
1
0
STYLE
5
11
100
AcDbSymbolTableRecord
100
AcDbTextStyleTableRecord
2
STANDARD
70
0
0
ENDTAB
0
TABLE
2
VIEW
5
6
100
AcDbSymbolTable
70
0
0
ENDTAB
0
TABLE
2
UCS
5
7
100
AcDbSymbolTable
70
0
0
ENDTAB
0
TABLE
2
APPID
5
9
100
AcDbSymbolTable
70
2
0
APPID
5
12
100
AcDbSymbolTableRecord
100
AcDbRegAppTableRecord
2
ACAD
70
0
0
ENDTAB
0
TABLE
2
DIMSTYLE
5
A
100
AcDbSymbolTable
70
1
0
ENDTAB
0
TABLE
2
BLOCK_RECORD
5
1
100
AcDbSymbolTable
70
1
0
BLOCK_RECORD
5
1F
100
AcDbSymbolTableRecord
100
AcDbBlockTableRecord
2
*MODEL_SPACE
0
BLOCK_RECORD
5
1B
100
AcDbSymbolTableRecord
100
AcDbBlockTableRecord
2
*PAPER_SPACE
0
ENDTAB
0
ENDSEC
0
SECTION
2
BLOCKS
0
BLOCK
5
20
100
AcDbEntity
100
AcDbBlockBegin
2
*MODEL_SPACE
0
ENDBLK
5
21
100
AcDbEntity
100
AcDbBlockEnd
0
BLOCK
5
1C
100
AcDbEntity
100
AcDbBlockBegin
2
*PAPER_SPACE
0
ENDBLK
5
1D
100
AcDbEntity
100
AcDbBlockEnd
0
ENDSEC
0
SECTION
2
ENTITIES
0
LWPOLYLINE
5
100
100
AcDbEntity
8
0
100
AcDbPolyline
90
4
70
1
43
0.0
10
-196.60000290572654
20
-370.05000417232731
10
-196.60000290572651
20
-365.95000417232723
42
-0.99999999999999989
10
-193.4000029057265
20
-365.95000417232723
10
-193.40000290572647
20
-370.05000417232731
42
-0.99999999999999989
0
LWPOLYLINE
5
101
100
AcDbEntity
8
0
100
AcDbPolyline
90
4
70
1
43
0.0
10
-178.50000266730785
20
-401.00000466406527
10
-180.50000269711018
20
-401.00000466406527
10
-180.50000269711018
20
-397.00000460446063
10
-178.50000266730785
20
-397.00000460446063
0
LWPOLYLINE
5
102
100
AcDbEntity
8
0
100
AcDbPolyline
90
4
70
1
43
0.0
10
-209.50000312179327
20
-397.00000460446063
10
-209.50000312179327
20
-401.00000466406527
10
-211.50000315159559
20
-401.00000466406527
10
-211.50000315159559
20
-397.00000460446063
0
LWPOLYLINE
5
103
100
AcDbEntity
8
0
100
AcDbPolyline
90
12
70
1
43
0.0
10
-186.6109871949968
20
-360.97401234600056
10
-203.3894109932981
20
-360.97401234600056
42
0.36433472384404231
10
-207.32953286192088
20
-364.2844910189915
10
-212.25111310881857
20
-392.40780671554973
42
0.04333851927266541
10
-212.70019909414745
20
-397.57921666811711
10
-212.70019909414745
20
-443.97401234600056
42
0.41421356237309503
10
-211.70019909414745
20
-444.97401234600056
10
-178.30019909414747
20
-444.97401234600045
42
0.41421356237309503
10
-177.30019909414747
20
-443.97401234600056
10
-177.30019909414747
20
-397.57921666811717
42
0.043338519272666048
10
-177.74928507947635
20
-392.40780671554973
10
-182.67086532637404
20
-364.2844910189915
42
0.36433472384404181
0
CIRCLE
5
104
100
AcDbEntity
8
0
100
AcDbCircle
10
183.12760365599007
20
-438.88783762543778
30
-3.0238635707256614e-12
40
2.5499999999999901
210
1.7282287902526529e-18
220
7.374799726893057e-15
230
-1
0
CIRCLE
5
105
100
AcDbEntity
8
0
100
AcDbCircle
10
207.17177852467117
20
-414.36114526983914
30
-3.0206613644152735e-12
40
2.5499999999999901
210
1.7282287902526529e-18
220
7.374799726893057e-15
230
-1
0
CIRCLE
5
106
100
AcDbEntity
8
0
100
AcDbCircle
10
206.73223366109568
20
-438.81624689242159
30
-3.0233763976085226e-12
40
2.5500000000000256
210
1.7282287902526527e-18
220
7.374799726893057e-15
230
-1
0
CIRCLE
5
107
100
AcDbEntity
8
0
100
AcDbCircle
10
183.12760365599007
20
-414.36114526983931
30
-3.0206198105800282e-12
40
2.5500000000000256
210
1.7282287902526527e-18
220
7.374799726893057e-15
230
-1
0
CIRCLE
5
108
100
AcDbEntity
8
0
100
AcDbCircle
10
195.00000290572643
20
-379.00000433623973
30
-3.0085489538185189e-12
40
1.5500000000000114
210
1.7282287902526527e-18
220
7.374799726893057e-15
230
-1
0
CIRCLE
5
109
100
AcDbEntity
8
0
100
AcDbCircle
10
195.00000290572643
20
-389.00000433623973
30
-3.0112426775114394e-12
40
1.5500000000000114
210
1.7282287902526527e-18
220
7.374799726893057e-15
230
-1
0
CIRCLE
5
110
100
AcDbEntity
8
0
100
AcDbCircle
10
194.89276004000999
20
-426.60024087323137
30
-3.039846748799317e-12
40
10
210
1.7282287902526527e-18
220
7.374799726893057e-15
230
-1
0
ENDSEC
0
SECTION
2
OBJECTS
0
DICTIONARY
5
C
100
AcDbDictionary
3
ACAD_GROUP
350
D
3
ACAD_MLINESTYLE
350
17
0
DICTIONARY
5
D
100
AcDbDictionary
0
DICTIONARY
5
1A
330
C
100
AcDbDictionary
0
DICTIONARY
5
17
100
AcDbDictionary
0
ENDSEC
0
EOF
