0
SECTION
2
HEADER
9
$INSUNITS
70
4
9
$ACADVER
1
AC1014
9
$HANDSEED
5
FFFF
0
ENDSEC
0
SECTION
2
TABLES
0
TABLE
2
VPORT
5
8
100
AcDbSymbolTable
0
ENDTAB
0
TABLE
2
LTYPE
5
5
100
AcDbSymbolTable
0
LTYPE
5
14
100
AcDbSymbolTableRecord
100
AcDbLinetypeTableRecord
2
BYBLOCK
70
0
0
LTYPE
5
15
100
AcDbSymbolTableRecord
100
AcDbLinetypeTableRecord
2
BYLAYER
70
0
0
LTYPE
5
16
100
AcDbSymbolTableRecord
100
AcDbLinetypeTableRecord
2
DASHED
70
0
3
Dashed __ __ __ __ __ __ __ __ __ __ __ __ __ _
72
65
73
2
40
0.75
49
0.5
74
0
49
-0.25
74
0
0
ENDTAB
0
TABLE
2
LAYER
5
2
100
AcDbSymbolTable
70
3
0
LAYER
5
50
100
AcDbSymbolTableRecord
100
AcDbLayerTableRecord
2
1
70
0
62
7
6
DASHED
0
LAYER
5
51
100
AcDbSymbolTableRecord
100
AcDbLayerTableRecord
2
0
70
0
62
7
6
CONTINUOUS
0
ENDTAB
0
TABLE
2
STYLE
5
3
100
AcDbSymbolTable
70
1
0
STYLE
5
11
100
AcDbSymbolTableRecord
100
AcDbTextStyleTableRecord
2
STANDARD
70
0
0
ENDTAB
0
TABLE
2
VIEW
5
6
100
AcDbSymbolTable
70
0
0
ENDTAB
0
TABLE
2
UCS
5
7
100
AcDbSymbolTable
70
0
0
ENDTAB
0
TABLE
2
APPID
5
9
100
AcDbSymbolTable
70
2
0
APPID
5
12
100
AcDbSymbolTableRecord
100
AcDbRegAppTableRecord
2
ACAD
70
0
0
ENDTAB
0
TABLE
2
DIMSTYLE
5
A
100
AcDbSymbolTable
70
1
0
ENDTAB
0
TABLE
2
BLOCK_RECORD
5
1
100
AcDbSymbolTable
70
1
0
BLOCK_RECORD
5
1F
100
AcDbSymbolTableRecord
100
AcDbBlockTableRecord
2
*MODEL_SPACE
0
BLOCK_RECORD
5
1B
100
AcDbSymbolTableRecord
100
AcDbBlockTableRecord
2
*PAPER_SPACE
0
ENDTAB
0
ENDSEC
0
SECTION
2
BLOCKS
0
BLOCK
5
20
100
AcDbEntity
100
AcDbBlockBegin
2
*MODEL_SPACE
0
ENDBLK
5
21
100
AcDbEntity
100
AcDbBlockEnd
0
BLOCK
5
1C
100
AcDbEntity
100
AcDbBlockBegin
2
*PAPER_SPACE
0
ENDBLK
5
1D
100
AcDbEntity
100
AcDbBlockEnd
0
ENDSEC
0
SECTION
2
ENTITIES
0
LWPOLYLINE
5
100
100
AcDbEntity
8
0
100
AcDbPolyline
90
4
70
1
43
0.0
10
183.95901970782805
20
-427.37232044876612
42
0.014347214954998294
10
183.95901970782833
20
-424.50346798974977
42
-1.0291121075752852
10
205.94996449838933
20
-424.50346798975227
42
0.014347214954997327
10
205.94996449838899
20
-427.37232044876862
42
-1.029112107575052
0
LWPOLYLINE
5
101
100
AcDbEntity
8
0
100
AcDbPolyline
90
6
70
1
43
0.0
10
181.12373330554007
20
-441.68789421925669
42
0.018281435835551117
10
181.10405201860291
20
-443.14978798369077
42
-1.0233676386698323
10
177.80493218761109
20
-443.14978798369043
42
0.018281435835561376
10
177.78525090067407
20
-441.68789421925544
42
0.018281435835553014
10
177.80493218761137
20
-440.22600045482125
42
-1.0233676386698112
10
181.1040520186032
20
-440.22600045482181
42
0.018281435835560238
0
LWPOLYLINE
5
102
100
AcDbEntity
8
0
100
AcDbPolyline
90
6
70
1
43
0.0
10
212.12373330554334
20
-410.68789421925987
42
0.018281435835556057
10
212.10405201860613
20
-412.14978798369435
42
-1.0233676386698298
10
208.80493218761421
20
-412.14978798369401
42
0.018281435835556057
10
208.78525090067734
20
-410.68789421925948
42
0.018281435835558336
10
208.80493218761458
20
-409.22600045482483
42
-1.0233676386697881
10
212.10405201860641
20
-409.22600045482517
42
0.018281435835558336
0
LWPOLYLINE
5
103
100
AcDbEntity
8
0
100
AcDbPolyline
90
26
70
1
43
0.0
10
170.39346232340077
20
-407.38330698688054
10
170.39346232339565
20
-452.38330892403144
10
167.39346232339534
20
-455.3833089240311
10
162.39346232339531
20
-455.38330892403053
10
160.39346232339514
20
-457.3833089240303
10
160.39346232339309
20
-475.38330698687923
10
185.29346569105536
20
-475.38330698688208
10
185.29346589967244
20
-468.38331214268385
10
186.39346597417824
20
-468.38331214268402
10
186.39346597417892
20
-462.38331205327711
10
185.29346589967309
20
-462.383312053277
10
185.29346589967389
20
-455.38331194896887
10
205.49346619769705
20
-455.38330892403542
10
205.49346598907999
20
-462.38331205327933
10
204.39346597417881
20
-462.38331205327916
10
204.39346597417813
20
-468.38331214268607
10
205.49346598907931
20
-468.38331214268624
10
205.49346598907849
20
-475.38331224699436
10
229.39346232339267
20
-475.38330698688708
10
229.39346232339474
20
-457.38330892403815
10
227.39346232339494
20
-455.38330892403792
10
222.39346232339497
20
-455.38330892403735
10
219.39346232339534
20
-452.38330892403701
10
219.39346232340046
20
-407.38330698688594
10
217.39346232340085
20
-405.38330698688594
10
172.39346038625064
20
-405.38330698688083
0
LWPOLYLINE
5
104
100
AcDbEntity
8
0
100
AcDbPolyline
90
6
70
1
43
0.0
10
212.12373330553982
20
-441.6878942192597
42
0.018281435835557198
10
212.10405201860254
20
-443.1497879836943
42
-1.0233676386698298
10
208.80493218761072
20
-443.14978798369395
42
0.018281435835556817
10
208.78525090067376
20
-441.68789421925936
42
0.018281435835556439
10
208.804932187611
20
-440.22600045482483
42
-1.0233676386697881
10
212.10405201860289
20
-440.22600045482523
42
0.018281435835556439
0
LWPOLYLINE
5
105
100
AcDbEntity
8
0
100
AcDbPolyline
90
6
70
1
43
0.0
10
181.12373330554348
20
-410.68789421925635
42
0.018281435835556439
10
181.1040520186063
20
-412.14978798369089
42
-1.0233676386698101
10
177.80493218761438
20
-412.14978798369043
42
0.018281435835556057
10
177.78525090067748
20
-410.68789421925595
42
0.018281435835558336
10
177.80493218761478
20
-409.22600045482125
42
-1.0233676386698101
10
181.10405201860655
20
-409.2260004548217
42
0.018281435835557958
0
CIRCLE
5
106
100
AcDbEntity
8
0
100
AcDbCircle
10
217.39346426054485
20
-465.38330907304839
30
-7.1054273576010019e-14
40
2.1000000000000085
210
-9.8607613152625228e-32
220
6.1629758220504116e-33
230
1
0
CIRCLE
5
107
100
AcDbEntity
8
0
100
AcDbCircle
10
172.89346411153349
20
-465.38330795545619
30
-7.1054273576010019e-14
40
2.1000000000000085
210
-9.8607613152625228e-32
220
6.1629758220504116e-33
230
1
0
CIRCLE
5
108
100
AcDbEntity
8
0
100
AcDbCircle
10
179.45449210310596
20
-452.38331343908436
30
-7.1054273576010019e-14
40
1.6499999999999915
210
-9.8607613152625228e-32
220
6.1629758220504116e-33
230
1
0
CIRCLE
5
109
100
AcDbEntity
8
0
100
AcDbCircle
10
210.45449210310557
20
-452.38331343908789
30
-7.1054273576010019e-14
40
1.6000000000000369
210
-9.8607613152625228e-32
220
6.1629758220504116e-33
230
1
0
ENDSEC
0
SECTION
2
OBJECTS
0
DICTIONARY
5
C
100
AcDbDictionary
3
ACAD_GROUP
350
D
3
ACAD_MLINESTYLE
350
17
0
DICTIONARY
5
D
100
AcDbDictionary
0
DICTIONARY
5
1A
330
C
100
AcDbDictionary
0
DICTIONARY
5
17
100
AcDbDictionary
0
ENDSEC
0
EOF
